<mxfile host="Electron" agent="Mozilla/5.0 (Windows NT 10.0; Win64; x64) AppleWebKit/537.36 (KHTML, like Gecko) draw.io/24.7.8 Chrome/128.0.6613.36 Electron/32.0.1 Safari/537.36" version="24.7.8">
  <diagram name="Страница — 1" id="ApuDk91pIEpExBx-2Sa9">
    <mxGraphModel dx="1173" dy="572" grid="0" gridSize="10" guides="1" tooltips="1" connect="1" arrows="1" fold="1" page="0" pageScale="1" pageWidth="827" pageHeight="1169" math="0" shadow="0">
      <root>
        <mxCell id="0" />
        <mxCell id="1" parent="0" />
        <mxCell id="GJvQQZvbBRgV9cz43ZG1-13" value="" style="edgeStyle=orthogonalEdgeStyle;rounded=0;orthogonalLoop=1;jettySize=auto;html=1;" parent="1" source="GJvQQZvbBRgV9cz43ZG1-1" target="GJvQQZvbBRgV9cz43ZG1-8" edge="1">
          <mxGeometry relative="1" as="geometry" />
        </mxCell>
        <mxCell id="GJvQQZvbBRgV9cz43ZG1-1" value="Начало" style="ellipse;whiteSpace=wrap;html=1;" parent="1" vertex="1">
          <mxGeometry x="120" y="40" width="120" height="80" as="geometry" />
        </mxCell>
        <mxCell id="GJvQQZvbBRgV9cz43ZG1-6" value="" style="edgeStyle=orthogonalEdgeStyle;rounded=0;orthogonalLoop=1;jettySize=auto;html=1;" parent="1" source="GJvQQZvbBRgV9cz43ZG1-3" target="GJvQQZvbBRgV9cz43ZG1-4" edge="1">
          <mxGeometry relative="1" as="geometry" />
        </mxCell>
        <mxCell id="GJvQQZvbBRgV9cz43ZG1-3" value="number" style="shape=parallelogram;perimeter=parallelogramPerimeter;whiteSpace=wrap;html=1;fixedSize=1;" parent="1" vertex="1">
          <mxGeometry x="120" y="280" width="120" height="60" as="geometry" />
        </mxCell>
        <mxCell id="GJvQQZvbBRgV9cz43ZG1-10" style="edgeStyle=orthogonalEdgeStyle;rounded=0;orthogonalLoop=1;jettySize=auto;html=1;entryX=0.5;entryY=0;entryDx=0;entryDy=0;" parent="1" source="GJvQQZvbBRgV9cz43ZG1-4" target="GJvQQZvbBRgV9cz43ZG1-7" edge="1">
          <mxGeometry relative="1" as="geometry" />
        </mxCell>
        <mxCell id="GJvQQZvbBRgV9cz43ZG1-17" style="edgeStyle=orthogonalEdgeStyle;rounded=0;orthogonalLoop=1;jettySize=auto;html=1;entryX=0.5;entryY=0;entryDx=0;entryDy=0;" parent="1" source="GJvQQZvbBRgV9cz43ZG1-4" target="GJvQQZvbBRgV9cz43ZG1-15" edge="1">
          <mxGeometry relative="1" as="geometry">
            <Array as="points">
              <mxPoint x="260" y="465" />
              <mxPoint x="260" y="760" />
              <mxPoint x="180" y="760" />
            </Array>
          </mxGeometry>
        </mxCell>
        <mxCell id="GJvQQZvbBRgV9cz43ZG1-4" value="введено не целое число?" style="rhombus;whiteSpace=wrap;html=1;" parent="1" vertex="1">
          <mxGeometry x="120" y="410" width="120" height="110" as="geometry" />
        </mxCell>
        <mxCell id="GJvQQZvbBRgV9cz43ZG1-11" value="" style="edgeStyle=orthogonalEdgeStyle;rounded=0;orthogonalLoop=1;jettySize=auto;html=1;" parent="1" source="GJvQQZvbBRgV9cz43ZG1-7" target="GJvQQZvbBRgV9cz43ZG1-9" edge="1">
          <mxGeometry relative="1" as="geometry" />
        </mxCell>
        <mxCell id="GJvQQZvbBRgV9cz43ZG1-7" value="Введены неверные данные" style="shape=document;whiteSpace=wrap;html=1;boundedLbl=1;" parent="1" vertex="1">
          <mxGeometry x="120" y="545" width="120" height="80" as="geometry" />
        </mxCell>
        <mxCell id="GJvQQZvbBRgV9cz43ZG1-12" value="" style="edgeStyle=orthogonalEdgeStyle;rounded=0;orthogonalLoop=1;jettySize=auto;html=1;" parent="1" source="GJvQQZvbBRgV9cz43ZG1-8" target="GJvQQZvbBRgV9cz43ZG1-3" edge="1">
          <mxGeometry relative="1" as="geometry" />
        </mxCell>
        <mxCell id="GJvQQZvbBRgV9cz43ZG1-8" value="Введите целое число:" style="shape=document;whiteSpace=wrap;html=1;boundedLbl=1;" parent="1" vertex="1">
          <mxGeometry x="120" y="150" width="120" height="80" as="geometry" />
        </mxCell>
        <mxCell id="GJvQQZvbBRgV9cz43ZG1-14" style="edgeStyle=orthogonalEdgeStyle;rounded=0;orthogonalLoop=1;jettySize=auto;html=1;entryX=0.5;entryY=0;entryDx=0;entryDy=0;" parent="1" source="GJvQQZvbBRgV9cz43ZG1-9" target="GJvQQZvbBRgV9cz43ZG1-3" edge="1">
          <mxGeometry relative="1" as="geometry">
            <Array as="points">
              <mxPoint x="180" y="750" />
              <mxPoint x="100" y="750" />
              <mxPoint x="100" y="260" />
              <mxPoint x="180" y="260" />
            </Array>
          </mxGeometry>
        </mxCell>
        <mxCell id="GJvQQZvbBRgV9cz43ZG1-9" value="Введите целое число:" style="shape=document;whiteSpace=wrap;html=1;boundedLbl=1;" parent="1" vertex="1">
          <mxGeometry x="120" y="660" width="120" height="80" as="geometry" />
        </mxCell>
        <mxCell id="GJvQQZvbBRgV9cz43ZG1-15" value="7" style="ellipse;whiteSpace=wrap;html=1;aspect=fixed;" parent="1" vertex="1">
          <mxGeometry x="170" y="780" width="20" height="20" as="geometry" />
        </mxCell>
        <mxCell id="GJvQQZvbBRgV9cz43ZG1-20" value="" style="edgeStyle=orthogonalEdgeStyle;rounded=0;orthogonalLoop=1;jettySize=auto;html=1;" parent="1" source="GJvQQZvbBRgV9cz43ZG1-18" target="GJvQQZvbBRgV9cz43ZG1-19" edge="1">
          <mxGeometry relative="1" as="geometry" />
        </mxCell>
        <mxCell id="GJvQQZvbBRgV9cz43ZG1-18" value="7" style="ellipse;whiteSpace=wrap;html=1;aspect=fixed;" parent="1" vertex="1">
          <mxGeometry x="377.5" y="50" width="30" height="30" as="geometry" />
        </mxCell>
        <mxCell id="GJvQQZvbBRgV9cz43ZG1-23" value="" style="edgeStyle=orthogonalEdgeStyle;rounded=0;orthogonalLoop=1;jettySize=auto;html=1;" parent="1" source="GJvQQZvbBRgV9cz43ZG1-19" target="GJvQQZvbBRgV9cz43ZG1-21" edge="1">
          <mxGeometry relative="1" as="geometry" />
        </mxCell>
        <mxCell id="GJvQQZvbBRgV9cz43ZG1-27" style="edgeStyle=orthogonalEdgeStyle;rounded=0;orthogonalLoop=1;jettySize=auto;html=1;entryX=0.5;entryY=0;entryDx=0;entryDy=0;" parent="1" source="GJvQQZvbBRgV9cz43ZG1-19" target="GJvQQZvbBRgV9cz43ZG1-26" edge="1">
          <mxGeometry relative="1" as="geometry">
            <Array as="points">
              <mxPoint x="490" y="145" />
              <mxPoint x="490" y="380" />
              <mxPoint x="393" y="380" />
            </Array>
          </mxGeometry>
        </mxCell>
        <mxCell id="GJvQQZvbBRgV9cz43ZG1-19" value="number&amp;nbsp; != 0" style="rhombus;whiteSpace=wrap;html=1;" parent="1" vertex="1">
          <mxGeometry x="325" y="110" width="135" height="70" as="geometry" />
        </mxCell>
        <mxCell id="GJvQQZvbBRgV9cz43ZG1-24" value="" style="edgeStyle=orthogonalEdgeStyle;rounded=0;orthogonalLoop=1;jettySize=auto;html=1;" parent="1" source="GJvQQZvbBRgV9cz43ZG1-21" target="GJvQQZvbBRgV9cz43ZG1-22" edge="1">
          <mxGeometry relative="1" as="geometry" />
        </mxCell>
        <mxCell id="GJvQQZvbBRgV9cz43ZG1-21" value="counters[number%10] += 1" style="whiteSpace=wrap;html=1;" parent="1" vertex="1">
          <mxGeometry x="312.5" y="200" width="160" height="60" as="geometry" />
        </mxCell>
        <mxCell id="GJvQQZvbBRgV9cz43ZG1-25" style="edgeStyle=orthogonalEdgeStyle;rounded=0;orthogonalLoop=1;jettySize=auto;html=1;entryX=0.5;entryY=0;entryDx=0;entryDy=0;" parent="1" source="GJvQQZvbBRgV9cz43ZG1-22" target="GJvQQZvbBRgV9cz43ZG1-19" edge="1">
          <mxGeometry relative="1" as="geometry">
            <Array as="points">
              <mxPoint x="393" y="370" />
              <mxPoint x="300" y="370" />
              <mxPoint x="300" y="90" />
              <mxPoint x="393" y="90" />
            </Array>
          </mxGeometry>
        </mxCell>
        <mxCell id="GJvQQZvbBRgV9cz43ZG1-22" value="number = number/10" style="whiteSpace=wrap;html=1;" parent="1" vertex="1">
          <mxGeometry x="312.5" y="290" width="160" height="60" as="geometry" />
        </mxCell>
        <mxCell id="GJvQQZvbBRgV9cz43ZG1-29" value="" style="edgeStyle=orthogonalEdgeStyle;rounded=0;orthogonalLoop=1;jettySize=auto;html=1;" parent="1" source="GJvQQZvbBRgV9cz43ZG1-26" target="GJvQQZvbBRgV9cz43ZG1-28" edge="1">
          <mxGeometry relative="1" as="geometry" />
        </mxCell>
        <mxCell id="GJvQQZvbBRgV9cz43ZG1-36" style="edgeStyle=orthogonalEdgeStyle;rounded=0;orthogonalLoop=1;jettySize=auto;html=1;entryX=0.5;entryY=0;entryDx=0;entryDy=0;" parent="1" source="GJvQQZvbBRgV9cz43ZG1-26" target="GJvQQZvbBRgV9cz43ZG1-35" edge="1">
          <mxGeometry relative="1" as="geometry">
            <Array as="points">
              <mxPoint x="470" y="440" />
              <mxPoint x="470" y="790" />
              <mxPoint x="393" y="790" />
            </Array>
          </mxGeometry>
        </mxCell>
        <mxCell id="GJvQQZvbBRgV9cz43ZG1-26" value="i; i&amp;lt;10; i++" style="shape=hexagon;perimeter=hexagonPerimeter2;whiteSpace=wrap;html=1;fixedSize=1;" parent="1" vertex="1">
          <mxGeometry x="332.5" y="400" width="120" height="80" as="geometry" />
        </mxCell>
        <mxCell id="GJvQQZvbBRgV9cz43ZG1-32" value="" style="edgeStyle=orthogonalEdgeStyle;rounded=0;orthogonalLoop=1;jettySize=auto;html=1;" parent="1" source="GJvQQZvbBRgV9cz43ZG1-28" target="GJvQQZvbBRgV9cz43ZG1-31" edge="1">
          <mxGeometry relative="1" as="geometry" />
        </mxCell>
        <mxCell id="1RuQZwGkXs2hcvXNFg-g-2" style="edgeStyle=orthogonalEdgeStyle;rounded=0;orthogonalLoop=1;jettySize=auto;html=1;entryX=0;entryY=0.5;entryDx=0;entryDy=0;" edge="1" parent="1" source="GJvQQZvbBRgV9cz43ZG1-28" target="GJvQQZvbBRgV9cz43ZG1-26">
          <mxGeometry relative="1" as="geometry">
            <Array as="points">
              <mxPoint x="460" y="540" />
              <mxPoint x="460" y="780" />
              <mxPoint x="312" y="780" />
              <mxPoint x="312" y="440" />
            </Array>
          </mxGeometry>
        </mxCell>
        <mxCell id="GJvQQZvbBRgV9cz43ZG1-28" value="counters[i]&amp;gt;1" style="rhombus;whiteSpace=wrap;html=1;" parent="1" vertex="1">
          <mxGeometry x="347.5" y="500" width="90" height="80" as="geometry" />
        </mxCell>
        <mxCell id="GJvQQZvbBRgV9cz43ZG1-34" style="edgeStyle=orthogonalEdgeStyle;rounded=0;orthogonalLoop=1;jettySize=auto;html=1;entryX=0;entryY=0.5;entryDx=0;entryDy=0;" parent="1" source="GJvQQZvbBRgV9cz43ZG1-30" target="GJvQQZvbBRgV9cz43ZG1-26" edge="1">
          <mxGeometry relative="1" as="geometry">
            <Array as="points">
              <mxPoint x="393" y="780" />
              <mxPoint x="313" y="780" />
              <mxPoint x="313" y="440" />
            </Array>
          </mxGeometry>
        </mxCell>
        <mxCell id="GJvQQZvbBRgV9cz43ZG1-30" value="counter += 1" style="rounded=0;whiteSpace=wrap;html=1;" parent="1" vertex="1">
          <mxGeometry x="332.5" y="710" width="120" height="60" as="geometry" />
        </mxCell>
        <mxCell id="GJvQQZvbBRgV9cz43ZG1-33" value="" style="edgeStyle=orthogonalEdgeStyle;rounded=0;orthogonalLoop=1;jettySize=auto;html=1;" parent="1" source="GJvQQZvbBRgV9cz43ZG1-31" target="GJvQQZvbBRgV9cz43ZG1-30" edge="1">
          <mxGeometry relative="1" as="geometry" />
        </mxCell>
        <mxCell id="GJvQQZvbBRgV9cz43ZG1-31" value="&quot;Цифра &quot;+ i +&quot; повторяется &quot;+ counters[i] + &quot; раз(а)&quot;" style="shape=document;whiteSpace=wrap;html=1;boundedLbl=1;" parent="1" vertex="1">
          <mxGeometry x="332.5" y="610" width="120" height="80" as="geometry" />
        </mxCell>
        <mxCell id="GJvQQZvbBRgV9cz43ZG1-35" value="15" style="ellipse;whiteSpace=wrap;html=1;aspect=fixed;" parent="1" vertex="1">
          <mxGeometry x="377.5" y="800" width="30" height="30" as="geometry" />
        </mxCell>
        <mxCell id="GJvQQZvbBRgV9cz43ZG1-39" value="" style="edgeStyle=orthogonalEdgeStyle;rounded=0;orthogonalLoop=1;jettySize=auto;html=1;" parent="1" source="GJvQQZvbBRgV9cz43ZG1-37" target="GJvQQZvbBRgV9cz43ZG1-38" edge="1">
          <mxGeometry relative="1" as="geometry" />
        </mxCell>
        <mxCell id="GJvQQZvbBRgV9cz43ZG1-37" value="15" style="ellipse;whiteSpace=wrap;html=1;aspect=fixed;" parent="1" vertex="1">
          <mxGeometry x="560" y="60" width="40" height="40" as="geometry" />
        </mxCell>
        <mxCell id="GJvQQZvbBRgV9cz43ZG1-42" value="" style="edgeStyle=orthogonalEdgeStyle;rounded=0;orthogonalLoop=1;jettySize=auto;html=1;" parent="1" source="GJvQQZvbBRgV9cz43ZG1-38" target="GJvQQZvbBRgV9cz43ZG1-40" edge="1">
          <mxGeometry relative="1" as="geometry" />
        </mxCell>
        <mxCell id="GJvQQZvbBRgV9cz43ZG1-43" style="edgeStyle=orthogonalEdgeStyle;rounded=0;orthogonalLoop=1;jettySize=auto;html=1;entryX=0.5;entryY=0;entryDx=0;entryDy=0;" parent="1" source="GJvQQZvbBRgV9cz43ZG1-38" target="GJvQQZvbBRgV9cz43ZG1-41" edge="1">
          <mxGeometry relative="1" as="geometry" />
        </mxCell>
        <mxCell id="GJvQQZvbBRgV9cz43ZG1-38" value="counter !=0" style="rhombus;whiteSpace=wrap;html=1;" parent="1" vertex="1">
          <mxGeometry x="540" y="130" width="80" height="80" as="geometry" />
        </mxCell>
        <mxCell id="GJvQQZvbBRgV9cz43ZG1-45" style="edgeStyle=orthogonalEdgeStyle;rounded=0;orthogonalLoop=1;jettySize=auto;html=1;" parent="1" source="GJvQQZvbBRgV9cz43ZG1-40" target="GJvQQZvbBRgV9cz43ZG1-44" edge="1">
          <mxGeometry relative="1" as="geometry" />
        </mxCell>
        <mxCell id="GJvQQZvbBRgV9cz43ZG1-40" value="Есть одинаковые цифры" style="shape=document;whiteSpace=wrap;html=1;boundedLbl=1;" parent="1" vertex="1">
          <mxGeometry x="520" y="240" width="120" height="80" as="geometry" />
        </mxCell>
        <mxCell id="GJvQQZvbBRgV9cz43ZG1-46" style="edgeStyle=orthogonalEdgeStyle;rounded=0;orthogonalLoop=1;jettySize=auto;html=1;" parent="1" source="GJvQQZvbBRgV9cz43ZG1-41" target="GJvQQZvbBRgV9cz43ZG1-44" edge="1">
          <mxGeometry relative="1" as="geometry" />
        </mxCell>
        <mxCell id="GJvQQZvbBRgV9cz43ZG1-41" value="Нет одинаковых цифр" style="shape=document;whiteSpace=wrap;html=1;boundedLbl=1;" parent="1" vertex="1">
          <mxGeometry x="667" y="240" width="120" height="80" as="geometry" />
        </mxCell>
        <mxCell id="GJvQQZvbBRgV9cz43ZG1-44" value="Конец" style="ellipse;whiteSpace=wrap;html=1;" parent="1" vertex="1">
          <mxGeometry x="600" y="390" width="100" height="60" as="geometry" />
        </mxCell>
        <mxCell id="GJvQQZvbBRgV9cz43ZG1-47" value="1" style="text;html=1;align=center;verticalAlign=middle;whiteSpace=wrap;rounded=0;" parent="1" vertex="1">
          <mxGeometry x="230" y="40" width="60" height="30" as="geometry" />
        </mxCell>
        <mxCell id="GJvQQZvbBRgV9cz43ZG1-48" value="2" style="text;html=1;align=center;verticalAlign=middle;resizable=0;points=[];autosize=1;strokeColor=none;fillColor=none;" parent="1" vertex="1">
          <mxGeometry x="215" y="118" width="30" height="30" as="geometry" />
        </mxCell>
        <mxCell id="GJvQQZvbBRgV9cz43ZG1-49" value="3" style="text;html=1;align=center;verticalAlign=middle;resizable=0;points=[];autosize=1;strokeColor=none;fillColor=none;" parent="1" vertex="1">
          <mxGeometry x="205" y="258" width="30" height="30" as="geometry" />
        </mxCell>
        <mxCell id="GJvQQZvbBRgV9cz43ZG1-50" value="4" style="text;html=1;align=center;verticalAlign=middle;resizable=0;points=[];autosize=1;strokeColor=none;fillColor=none;" parent="1" vertex="1">
          <mxGeometry x="185" y="398" width="30" height="30" as="geometry" />
        </mxCell>
        <mxCell id="GJvQQZvbBRgV9cz43ZG1-51" value="5" style="text;html=1;align=center;verticalAlign=middle;resizable=0;points=[];autosize=1;strokeColor=none;fillColor=none;" parent="1" vertex="1">
          <mxGeometry x="205" y="518" width="30" height="30" as="geometry" />
        </mxCell>
        <mxCell id="GJvQQZvbBRgV9cz43ZG1-52" value="6" style="text;html=1;align=center;verticalAlign=middle;resizable=0;points=[];autosize=1;strokeColor=none;fillColor=none;" parent="1" vertex="1">
          <mxGeometry x="205" y="628" width="30" height="30" as="geometry" />
        </mxCell>
        <mxCell id="GJvQQZvbBRgV9cz43ZG1-53" value="8" style="text;html=1;align=center;verticalAlign=middle;resizable=0;points=[];autosize=1;strokeColor=none;fillColor=none;" parent="1" vertex="1">
          <mxGeometry x="415" y="98" width="30" height="30" as="geometry" />
        </mxCell>
        <mxCell id="GJvQQZvbBRgV9cz43ZG1-54" value="9" style="text;html=1;align=center;verticalAlign=middle;resizable=0;points=[];autosize=1;strokeColor=none;fillColor=none;" parent="1" vertex="1">
          <mxGeometry x="435" y="178" width="30" height="30" as="geometry" />
        </mxCell>
        <mxCell id="GJvQQZvbBRgV9cz43ZG1-55" value="10" style="text;html=1;align=center;verticalAlign=middle;resizable=0;points=[];autosize=1;strokeColor=none;fillColor=none;" parent="1" vertex="1">
          <mxGeometry x="430" y="258" width="40" height="30" as="geometry" />
        </mxCell>
        <mxCell id="GJvQQZvbBRgV9cz43ZG1-56" value="11" style="text;html=1;align=center;verticalAlign=middle;resizable=0;points=[];autosize=1;strokeColor=none;fillColor=none;" parent="1" vertex="1">
          <mxGeometry x="430" y="398" width="40" height="30" as="geometry" />
        </mxCell>
        <mxCell id="GJvQQZvbBRgV9cz43ZG1-57" value="12" style="text;html=1;align=center;verticalAlign=middle;resizable=0;points=[];autosize=1;strokeColor=none;fillColor=none;" parent="1" vertex="1">
          <mxGeometry x="410" y="498" width="40" height="30" as="geometry" />
        </mxCell>
        <mxCell id="GJvQQZvbBRgV9cz43ZG1-58" value="13" style="text;html=1;align=center;verticalAlign=middle;resizable=0;points=[];autosize=1;strokeColor=none;fillColor=none;" parent="1" vertex="1">
          <mxGeometry x="420" y="578" width="40" height="30" as="geometry" />
        </mxCell>
        <mxCell id="GJvQQZvbBRgV9cz43ZG1-59" value="14" style="text;html=1;align=center;verticalAlign=middle;resizable=0;points=[];autosize=1;strokeColor=none;fillColor=none;" parent="1" vertex="1">
          <mxGeometry x="420" y="678" width="40" height="30" as="geometry" />
        </mxCell>
        <mxCell id="GJvQQZvbBRgV9cz43ZG1-60" value="16" style="text;html=1;align=center;verticalAlign=middle;resizable=0;points=[];autosize=1;strokeColor=none;fillColor=none;" parent="1" vertex="1">
          <mxGeometry x="590" y="128" width="40" height="30" as="geometry" />
        </mxCell>
        <mxCell id="GJvQQZvbBRgV9cz43ZG1-61" value="17" style="text;html=1;align=center;verticalAlign=middle;resizable=0;points=[];autosize=1;strokeColor=none;fillColor=none;" parent="1" vertex="1">
          <mxGeometry x="600" y="208" width="40" height="30" as="geometry" />
        </mxCell>
        <mxCell id="GJvQQZvbBRgV9cz43ZG1-62" value="18" style="text;html=1;align=center;verticalAlign=middle;resizable=0;points=[];autosize=1;strokeColor=none;fillColor=none;" parent="1" vertex="1">
          <mxGeometry x="720" y="208" width="40" height="30" as="geometry" />
        </mxCell>
        <mxCell id="GJvQQZvbBRgV9cz43ZG1-63" value="19" style="text;html=1;align=center;verticalAlign=middle;resizable=0;points=[];autosize=1;strokeColor=none;fillColor=none;" parent="1" vertex="1">
          <mxGeometry x="690" y="378" width="40" height="30" as="geometry" />
        </mxCell>
      </root>
    </mxGraphModel>
  </diagram>
</mxfile>
